<svg xmlns="http://www.w3.org/2000/svg" xmlns:xlink="http://www.w3.org/1999/xlink" width="1600" zoomAndPan="magnify" viewBox="0 0 1200 675.000002" height="900" preserveAspectRatio="xMidYMid meet" version="1.0"><defs><g/><clipPath id="id1"><path d="M 0.886719 0 L 1199.113281 0 L 1199.113281 674 L 0.886719 674 Z M 0.886719 0 " clip-rule="nonzero"/></clipPath><clipPath id="id2"><path d="M 30.140625 290 L 264.542969 290 L 264.542969 452.734375 L 30.140625 452.734375 Z M 30.140625 290 " clip-rule="nonzero"/></clipPath><clipPath id="id3"><path d="M 144 259.519531 L 225 259.519531 L 225 436 L 144 436 Z M 144 259.519531 " clip-rule="nonzero"/></clipPath></defs><g clip-path="url(#id1)"><path fill="#ffffff" d="M 0.886719 0 L 1199.113281 0 L 1199.113281 681.492188 L 0.886719 681.492188 Z M 0.886719 0 " fill-opacity="1" fill-rule="nonzero"/><path fill="#ffffff" d="M 0.886719 0 L 1199.113281 0 L 1199.113281 674 L 0.886719 674 Z M 0.886719 0 " fill-opacity="1" fill-rule="nonzero"/><path fill="#ffffff" d="M 0.886719 0 L 1199.113281 0 L 1199.113281 674 L 0.886719 674 Z M 0.886719 0 " fill-opacity="1" fill-rule="nonzero"/><path fill="#ffffff" d="M 0.886719 0 L 1199.113281 0 L 1199.113281 674 L 0.886719 674 Z M 0.886719 0 " fill-opacity="1" fill-rule="nonzero"/></g><g fill="#000000" fill-opacity="1"><g transform="translate(270.048678, 414.898117)"><g><path d="M 71.765625 0 L 66.875 -18.640625 L 34.5625 -18.640625 L 29.53125 0 L 0 0 L 32.453125 -99.875 L 68.296875 -99.875 L 101.15625 0 Z M 61.296875 -40.6875 L 57.015625 -57.015625 C 56.015625 -60.640625 54.800781 -65.332031 53.375 -71.09375 C 51.945312 -76.851562 51.003906 -80.976562 50.546875 -83.46875 C 50.140625 -81.15625 49.332031 -77.34375 48.125 -72.03125 C 46.925781 -66.726562 44.265625 -56.28125 40.140625 -40.6875 Z M 61.296875 -40.6875 "/></g></g></g><g fill="#000000" fill-opacity="1"><g transform="translate(371.21061, 414.898117)"><g><path d="M 44.28125 1.359375 C 31.675781 1.359375 22.117188 -2.039062 15.609375 -8.84375 C 9.097656 -15.644531 5.84375 -25.421875 5.84375 -38.171875 C 5.84375 -50.953125 9.359375 -60.859375 16.390625 -67.890625 C 23.421875 -74.921875 33.421875 -78.4375 46.390625 -78.4375 C 55.328125 -78.4375 63.742188 -76.488281 71.640625 -72.59375 L 63.8125 -52.921875 C 60.59375 -54.328125 57.617188 -55.445312 54.890625 -56.28125 C 52.171875 -57.125 49.335938 -57.546875 46.390625 -57.546875 C 42.085938 -57.546875 38.753906 -55.867188 36.390625 -52.515625 C 34.035156 -49.160156 32.859375 -44.421875 32.859375 -38.296875 C 32.859375 -25.960938 37.414062 -19.796875 46.53125 -19.796875 C 54.332031 -19.796875 61.816406 -22.0625 68.984375 -26.59375 L 68.984375 -5.4375 C 62.140625 -0.90625 53.90625 1.359375 44.28125 1.359375 Z M 44.28125 1.359375 "/></g></g></g><g fill="#000000" fill-opacity="1"><g transform="translate(446.316703, 414.898117)"><g><path d="M 59.453125 0 L 54.359375 -10.203125 L 53.8125 -10.203125 C 50.226562 -5.753906 46.578125 -2.710938 42.859375 -1.078125 C 39.140625 0.546875 34.332031 1.359375 28.4375 1.359375 C 21.175781 1.359375 15.457031 -0.816406 11.28125 -5.171875 C 7.113281 -9.523438 5.03125 -15.644531 5.03125 -23.53125 C 5.03125 -31.75 7.882812 -37.863281 13.59375 -41.875 C 19.3125 -45.882812 27.59375 -48.140625 38.4375 -48.640625 L 51.296875 -49.046875 L 51.296875 -50.140625 C 51.296875 -56.484375 48.164062 -59.65625 41.90625 -59.65625 C 36.28125 -59.65625 29.140625 -57.753906 20.484375 -53.953125 L 12.796875 -71.5 C 21.773438 -76.125 33.113281 -78.4375 46.8125 -78.4375 C 56.695312 -78.4375 64.347656 -75.988281 69.765625 -71.09375 C 75.179688 -66.195312 77.890625 -59.347656 77.890625 -50.546875 L 77.890625 0 Z M 39.734375 -17.421875 C 42.953125 -17.421875 45.707031 -18.4375 48 -20.46875 C 50.289062 -22.507812 51.4375 -25.164062 51.4375 -28.4375 L 51.4375 -34.421875 L 45.3125 -34.15625 C 36.550781 -33.832031 32.171875 -30.609375 32.171875 -24.484375 C 32.171875 -19.773438 34.691406 -17.421875 39.734375 -17.421875 Z M 39.734375 -17.421875 "/></g></g></g><g fill="#000000" fill-opacity="1"><g transform="translate(533.124108, 414.898117)"><g><path d="M 33.125 1.359375 C 27.644531 1.359375 22.847656 -0.203125 18.734375 -3.328125 C 14.628906 -6.460938 11.453125 -11.066406 9.203125 -17.140625 C 6.960938 -23.222656 5.84375 -30.320312 5.84375 -38.4375 C 5.84375 -50.957031 8.359375 -60.753906 13.390625 -67.828125 C 18.429688 -74.898438 25.351562 -78.4375 34.15625 -78.4375 C 38.457031 -78.4375 42.226562 -77.570312 45.46875 -75.84375 C 48.71875 -74.125 51.679688 -71.222656 54.359375 -67.140625 L 54.90625 -67.140625 C 54.039062 -73.171875 53.609375 -79.207031 53.609375 -85.25 L 53.609375 -105.859375 L 80.40625 -105.859375 L 80.40625 0 L 60.34375 0 L 54.625 -9.734375 L 53.609375 -9.734375 C 49.023438 -2.335938 42.195312 1.359375 33.125 1.359375 Z M 44.015625 -19.65625 C 48.273438 -19.65625 51.28125 -20.992188 53.03125 -23.671875 C 54.78125 -26.347656 55.722656 -30.476562 55.859375 -36.0625 L 55.859375 -38.171875 C 55.859375 -44.972656 54.878906 -49.8125 52.921875 -52.6875 C 50.972656 -55.570312 47.914062 -57.015625 43.75 -57.015625 C 40.25 -57.015625 37.535156 -55.367188 35.609375 -52.078125 C 33.679688 -48.785156 32.71875 -44.101562 32.71875 -38.03125 C 32.71875 -32.039062 33.691406 -27.476562 35.640625 -24.34375 C 37.597656 -21.21875 40.390625 -19.65625 44.015625 -19.65625 Z M 44.015625 -19.65625 "/></g></g></g><g fill="#000000" fill-opacity="1"><g transform="translate(622.72079, 414.898117)"><g><path d="M 46.390625 1.359375 C 33.554688 1.359375 23.585938 -2.050781 16.484375 -8.875 C 9.390625 -15.695312 5.84375 -25.414062 5.84375 -38.03125 C 5.84375 -51.039062 9.128906 -61.023438 15.703125 -67.984375 C 22.285156 -74.953125 31.675781 -78.4375 43.875 -78.4375 C 55.488281 -78.4375 64.457031 -75.410156 70.78125 -69.359375 C 77.113281 -63.304688 80.28125 -54.585938 80.28125 -43.203125 L 80.28125 -31.359375 L 32.71875 -31.359375 C 32.90625 -27.054688 34.484375 -23.675781 37.453125 -21.21875 C 40.421875 -18.769531 44.46875 -17.546875 49.59375 -17.546875 C 54.269531 -17.546875 58.566406 -17.988281 62.484375 -18.875 C 66.410156 -19.757812 70.664062 -21.269531 75.25 -23.40625 L 75.25 -4.28125 C 71.070312 -2.15625 66.757812 -0.6875 62.3125 0.125 C 57.875 0.945312 52.566406 1.359375 46.390625 1.359375 Z M 44.828125 -60.34375 C 41.703125 -60.34375 39.082031 -59.351562 36.96875 -57.375 C 34.863281 -55.40625 33.628906 -52.3125 33.265625 -48.09375 L 56.125 -48.09375 C 56.03125 -51.8125 54.972656 -54.78125 52.953125 -57 C 50.941406 -59.226562 48.234375 -60.34375 44.828125 -60.34375 Z M 44.828125 -60.34375 "/></g></g></g><g fill="#000000" fill-opacity="1"><g transform="translate(708.847885, 414.898117)"><g><path d="M 103.8125 0 L 103.8125 -41.90625 C 103.8125 -47.125 103.097656 -51.035156 101.671875 -53.640625 C 100.242188 -56.242188 97.988281 -57.546875 94.90625 -57.546875 C 90.820312 -57.546875 87.828125 -55.800781 85.921875 -52.3125 C 84.015625 -48.820312 83.0625 -43.359375 83.0625 -35.921875 L 83.0625 0 L 56.390625 0 L 56.390625 -41.90625 C 56.390625 -47.125 55.707031 -51.035156 54.34375 -53.640625 C 52.988281 -56.242188 50.796875 -57.546875 47.765625 -57.546875 C 43.585938 -57.546875 40.546875 -55.6875 38.640625 -51.96875 C 36.734375 -48.25 35.78125 -42.175781 35.78125 -33.75 L 35.78125 0 L 9.1875 0 L 9.1875 -77.078125 L 29.25 -77.078125 L 32.59375 -67.5625 L 34.15625 -67.5625 C 36.195312 -71.09375 39.15625 -73.785156 43.03125 -75.640625 C 46.90625 -77.503906 51.316406 -78.4375 56.265625 -78.4375 C 67.367188 -78.4375 75.171875 -75.054688 79.671875 -68.296875 L 81.78125 -68.296875 C 83.957031 -71.472656 86.984375 -73.957031 90.859375 -75.75 C 94.734375 -77.539062 99.007812 -78.4375 103.6875 -78.4375 C 112.800781 -78.4375 119.535156 -76.097656 123.890625 -71.421875 C 128.242188 -66.753906 130.421875 -59.660156 130.421875 -50.140625 L 130.421875 0 Z M 103.8125 0 "/></g></g></g><g fill="#000000" fill-opacity="1"><g transform="translate(848.17513, 414.898117)"><g><path d="M 35.921875 0 L 9.3125 0 L 9.3125 -77.078125 L 35.921875 -77.078125 Z M 8.640625 -96.265625 C 8.640625 -100.253906 9.75 -103.222656 11.96875 -105.171875 C 14.195312 -107.128906 17.78125 -108.109375 22.71875 -108.109375 C 27.664062 -108.109375 31.269531 -107.109375 33.53125 -105.109375 C 35.800781 -103.109375 36.9375 -100.160156 36.9375 -96.265625 C 36.9375 -88.460938 32.195312 -84.5625 22.71875 -84.5625 C 13.332031 -84.5625 8.640625 -88.460938 8.640625 -96.265625 Z M 8.640625 -96.265625 "/></g></g></g><g fill="#000000" fill-opacity="1"><g transform="translate(893.483722, 414.898117)"><g><path d="M 59.453125 0 L 54.359375 -10.203125 L 53.8125 -10.203125 C 50.226562 -5.753906 46.578125 -2.710938 42.859375 -1.078125 C 39.140625 0.546875 34.332031 1.359375 28.4375 1.359375 C 21.175781 1.359375 15.457031 -0.816406 11.28125 -5.171875 C 7.113281 -9.523438 5.03125 -15.644531 5.03125 -23.53125 C 5.03125 -31.75 7.882812 -37.863281 13.59375 -41.875 C 19.3125 -45.882812 27.59375 -48.140625 38.4375 -48.640625 L 51.296875 -49.046875 L 51.296875 -50.140625 C 51.296875 -56.484375 48.164062 -59.65625 41.90625 -59.65625 C 36.28125 -59.65625 29.140625 -57.753906 20.484375 -53.953125 L 12.796875 -71.5 C 21.773438 -76.125 33.113281 -78.4375 46.8125 -78.4375 C 56.695312 -78.4375 64.347656 -75.988281 69.765625 -71.09375 C 75.179688 -66.195312 77.890625 -59.347656 77.890625 -50.546875 L 77.890625 0 Z M 39.734375 -17.421875 C 42.953125 -17.421875 45.707031 -18.4375 48 -20.46875 C 50.289062 -22.507812 51.4375 -25.164062 51.4375 -28.4375 L 51.4375 -34.421875 L 45.3125 -34.15625 C 36.550781 -33.832031 32.171875 -30.609375 32.171875 -24.484375 C 32.171875 -19.773438 34.691406 -17.421875 39.734375 -17.421875 Z M 39.734375 -17.421875 "/></g></g></g><g fill="#000000" fill-opacity="1"><g transform="translate(980.291127, 414.898117)"><g><path d="M 5.84375 -11.296875 C 5.84375 -15.460938 7.078125 -18.679688 9.546875 -20.953125 C 12.023438 -23.222656 15.625 -24.359375 20.34375 -24.359375 C 24.832031 -24.359375 28.273438 -23.222656 30.671875 -20.953125 C 33.078125 -18.679688 34.28125 -15.460938 34.28125 -11.296875 C 34.28125 -7.210938 33.046875 -4.023438 30.578125 -1.734375 C 28.109375 0.554688 24.695312 1.703125 20.34375 1.703125 C 15.851562 1.703125 12.3125 0.566406 9.71875 -1.703125 C 7.132812 -3.972656 5.84375 -7.171875 5.84375 -11.296875 Z M 5.84375 -11.296875 "/></g></g></g><g fill="#000000" fill-opacity="1"><g transform="translate(1020.565409, 414.898117)"><g><path d="M 44.28125 1.359375 C 31.675781 1.359375 22.117188 -2.039062 15.609375 -8.84375 C 9.097656 -15.644531 5.84375 -25.421875 5.84375 -38.171875 C 5.84375 -50.953125 9.359375 -60.859375 16.390625 -67.890625 C 23.421875 -74.921875 33.421875 -78.4375 46.390625 -78.4375 C 55.328125 -78.4375 63.742188 -76.488281 71.640625 -72.59375 L 63.8125 -52.921875 C 60.59375 -54.328125 57.617188 -55.445312 54.890625 -56.28125 C 52.171875 -57.125 49.335938 -57.546875 46.390625 -57.546875 C 42.085938 -57.546875 38.753906 -55.867188 36.390625 -52.515625 C 34.035156 -49.160156 32.859375 -44.421875 32.859375 -38.296875 C 32.859375 -25.960938 37.414062 -19.796875 46.53125 -19.796875 C 54.332031 -19.796875 61.816406 -22.0625 68.984375 -26.59375 L 68.984375 -5.4375 C 62.140625 -0.90625 53.90625 1.359375 44.28125 1.359375 Z M 44.28125 1.359375 "/></g></g></g><g fill="#000000" fill-opacity="1"><g transform="translate(1095.671501, 414.898117)"><g><path d="M 33.125 1.359375 C 27.644531 1.359375 22.847656 -0.203125 18.734375 -3.328125 C 14.628906 -6.460938 11.453125 -11.066406 9.203125 -17.140625 C 6.960938 -23.222656 5.84375 -30.320312 5.84375 -38.4375 C 5.84375 -50.957031 8.359375 -60.753906 13.390625 -67.828125 C 18.429688 -74.898438 25.351562 -78.4375 34.15625 -78.4375 C 38.457031 -78.4375 42.226562 -77.570312 45.46875 -75.84375 C 48.71875 -74.125 51.679688 -71.222656 54.359375 -67.140625 L 54.90625 -67.140625 C 54.039062 -73.171875 53.609375 -79.207031 53.609375 -85.25 L 53.609375 -105.859375 L 80.40625 -105.859375 L 80.40625 0 L 60.34375 0 L 54.625 -9.734375 L 53.609375 -9.734375 C 49.023438 -2.335938 42.195312 1.359375 33.125 1.359375 Z M 44.015625 -19.65625 C 48.273438 -19.65625 51.28125 -20.992188 53.03125 -23.671875 C 54.78125 -26.347656 55.722656 -30.476562 55.859375 -36.0625 L 55.859375 -38.171875 C 55.859375 -44.972656 54.878906 -49.8125 52.921875 -52.6875 C 50.972656 -55.570312 47.914062 -57.015625 43.75 -57.015625 C 40.25 -57.015625 37.535156 -55.367188 35.609375 -52.078125 C 33.679688 -48.785156 32.71875 -44.101562 32.71875 -38.03125 C 32.71875 -32.039062 33.691406 -27.476562 35.640625 -24.34375 C 37.597656 -21.21875 40.390625 -19.65625 44.015625 -19.65625 Z M 44.015625 -19.65625 "/></g></g></g><path fill="#ffffff" d="M 262.042969 293.097656 L 32.636719 293.097656 L 32.636719 439.953125 L 130.457031 439.953125 C 131.550781 445.894531 138.167969 450.464844 146.195312 450.464844 C 154.222656 450.464844 160.84375 445.894531 161.9375 439.953125 L 262.046875 439.953125 L 262.046875 293.097656 Z M 262.042969 293.097656 " fill-opacity="1" fill-rule="nonzero"/><g clip-path="url(#id2)"><path fill="#000000" d="M 146.195312 452.710938 C 137.910156 452.710938 130.902344 448.390625 128.734375 442.199219 L 32.636719 442.199219 C 31.394531 442.199219 30.390625 441.195312 30.390625 439.957031 L 30.390625 293.097656 C 30.390625 291.855469 31.394531 290.851562 32.636719 290.851562 L 262.042969 290.851562 C 263.285156 290.851562 264.292969 291.855469 264.292969 293.097656 L 264.292969 439.957031 C 264.292969 441.195312 263.285156 442.199219 262.042969 442.199219 L 163.660156 442.199219 C 161.492188 448.390625 154.484375 452.710938 146.195312 452.710938 Z M 34.886719 437.710938 L 130.457031 437.710938 C 131.542969 437.710938 132.472656 438.484375 132.667969 439.550781 C 133.578125 444.492188 139.394531 448.222656 146.195312 448.222656 C 153 448.222656 158.816406 444.492188 159.726562 439.550781 C 159.921875 438.484375 160.851562 437.710938 161.9375 437.710938 L 259.796875 437.710938 L 259.796875 295.34375 L 34.886719 295.34375 Z M 34.886719 437.710938 " fill-opacity="1" fill-rule="nonzero"/></g><path fill="#ffffff" d="M 154.253906 429.578125 L 247.589844 429.578125 L 247.589844 286.792969 L 46.933594 286.792969 L 46.933594 429.578125 L 138.160156 429.578125 C 138.160156 429.578125 146.410156 439.808594 154.253906 429.578125 Z M 154.253906 429.578125 " fill-opacity="1" fill-rule="nonzero"/><path fill="#000000" d="M 146.59375 436.371094 C 142.167969 436.371094 138.652344 433.339844 137.167969 431.824219 L 46.933594 431.824219 C 45.691406 431.824219 44.683594 430.820312 44.683594 429.578125 L 44.683594 286.792969 C 44.683594 285.550781 45.691406 284.546875 46.933594 284.546875 L 247.589844 284.546875 C 248.832031 284.546875 249.835938 285.550781 249.835938 286.792969 L 249.835938 429.578125 C 249.835938 430.820312 248.832031 431.824219 247.589844 431.824219 L 155.328125 431.824219 C 152.738281 434.84375 149.804688 436.371094 146.59375 436.371094 Z M 49.179688 427.335938 L 138.160156 427.335938 C 138.839844 427.335938 139.484375 427.640625 139.914062 428.171875 C 139.9375 428.203125 142.988281 431.878906 146.597656 431.882812 C 148.628906 431.882812 150.605469 430.648438 152.472656 428.214844 C 152.898438 427.660156 153.554688 427.335938 154.253906 427.335938 L 245.339844 427.335938 L 245.339844 289.039062 L 49.179688 289.039062 Z M 49.179688 427.335938 " fill-opacity="1" fill-rule="nonzero"/><path fill="#ffffff" d="M 146.503906 433.472656 L 56.769531 423.828125 L 56.769531 268.914062 L 146.503906 286.382812 Z M 146.503906 433.472656 " fill-opacity="1" fill-rule="nonzero"/><path fill="#000000" d="M 146.503906 435.714844 C 146.421875 435.714844 146.34375 435.710938 146.261719 435.703125 L 56.527344 426.058594 C 55.382812 425.9375 54.519531 424.972656 54.519531 423.828125 L 54.519531 268.914062 C 54.519531 268.242188 54.820312 267.605469 55.335938 267.179688 C 55.855469 266.753906 56.535156 266.578125 57.199219 266.707031 L 146.933594 284.179688 C 147.988281 284.382812 148.75 285.308594 148.75 286.382812 L 148.75 433.472656 C 148.75 434.109375 148.480469 434.71875 148.003906 435.144531 C 147.589844 435.511719 147.054688 435.714844 146.503906 435.714844 Z M 59.015625 421.808594 L 144.253906 430.972656 L 144.253906 288.234375 L 59.015625 271.636719 Z M 59.015625 421.808594 " fill-opacity="1" fill-rule="nonzero"/><path fill="#ffffff" d="M 146.503906 433.472656 L 236.238281 423.828125 L 236.238281 268.914062 L 146.503906 286.382812 Z M 146.503906 433.472656 " fill-opacity="1" fill-rule="nonzero"/><path fill="#000000" d="M 146.503906 435.714844 C 145.953125 435.714844 145.414062 435.511719 145 435.140625 C 144.527344 434.714844 144.253906 434.109375 144.253906 433.472656 L 144.253906 286.382812 C 144.253906 285.308594 145.015625 284.382812 146.070312 284.179688 L 235.808594 266.707031 C 236.46875 266.578125 237.148438 266.753906 237.667969 267.179688 C 238.183594 267.605469 238.484375 268.242188 238.484375 268.914062 L 238.484375 423.824219 C 238.484375 424.972656 237.621094 425.9375 236.476562 426.058594 L 146.742188 435.703125 C 146.664062 435.710938 146.582031 435.714844 146.503906 435.714844 Z M 148.75 288.234375 L 148.75 430.96875 L 233.988281 421.808594 L 233.988281 271.640625 Z M 148.75 288.234375 " fill-opacity="1" fill-rule="nonzero"/><path fill="#ffffff" d="M 146.503906 434.121094 L 70.28125 419.808594 L 70.28125 262.515625 L 146.503906 282.898438 Z M 146.503906 434.121094 " fill-opacity="1" fill-rule="nonzero"/><path fill="#000000" d="M 146.503906 436.367188 C 146.367188 436.367188 146.226562 436.351562 146.085938 436.328125 L 69.867188 422.015625 C 68.804688 421.816406 68.035156 420.890625 68.035156 419.808594 L 68.035156 262.515625 C 68.035156 261.816406 68.359375 261.160156 68.914062 260.734375 C 69.46875 260.308594 70.191406 260.167969 70.863281 260.347656 L 147.085938 280.726562 C 148.070312 280.992188 148.753906 281.878906 148.753906 282.894531 L 148.753906 434.121094 C 148.753906 434.789062 148.453125 435.421875 147.9375 435.847656 C 147.53125 436.1875 147.023438 436.367188 146.503906 436.367188 Z M 72.53125 417.949219 L 144.253906 431.414062 L 144.253906 284.621094 L 72.53125 265.441406 Z M 72.53125 417.949219 " fill-opacity="1" fill-rule="nonzero"/><path fill="#ffffff" d="M 180.882812 273.066406 L 146.503906 282.261719 L 146.503906 433.484375 L 222.722656 419.171875 L 222.722656 261.878906 L 199.765625 268.210938 " fill-opacity="1" fill-rule="nonzero"/><g clip-path="url(#id3)"><path fill="#000000" d="M 146.503906 435.730469 C 145.984375 435.730469 145.472656 435.550781 145.066406 435.210938 C 144.550781 434.785156 144.253906 434.152344 144.253906 433.484375 L 144.253906 282.261719 C 144.253906 281.242188 144.9375 280.355469 145.921875 280.089844 L 180.304688 270.898438 C 181.5 270.578125 182.734375 271.289062 183.058594 272.488281 C 183.378906 273.683594 182.664062 274.914062 181.464844 275.238281 L 148.753906 283.984375 L 148.753906 430.777344 L 220.476562 417.3125 L 220.476562 264.828125 L 200.363281 270.375 C 199.160156 270.703125 197.925781 270.003906 197.597656 268.808594 C 197.265625 267.613281 197.96875 266.375 199.167969 266.046875 L 222.125 259.714844 C 222.800781 259.527344 223.527344 259.667969 224.085938 260.09375 C 224.644531 260.515625 224.972656 261.175781 224.972656 261.878906 L 224.972656 419.171875 C 224.972656 420.253906 224.203125 421.179688 223.140625 421.378906 L 146.917969 435.691406 C 146.78125 435.71875 146.640625 435.730469 146.503906 435.730469 Z M 146.503906 435.730469 " fill-opacity="1" fill-rule="nonzero"/></g></svg>