<svg xmlns="http://www.w3.org/2000/svg" xmlns:xlink="http://www.w3.org/1999/xlink" width="1600" zoomAndPan="magnify" viewBox="0 0 1200 675.000002" height="900" preserveAspectRatio="xMidYMid meet" version="1.0"><defs><clipPath id="id1"><path d="M 0.886719 0 L 1199.113281 0 L 1199.113281 674 L 0.886719 674 Z M 0.886719 0 " clip-rule="nonzero"/></clipPath></defs><g clip-path="url(#id1)"><path fill="#ffffff" d="M 0.886719 0 L 1199.113281 0 L 1199.113281 681.492188 L 0.886719 681.492188 Z M 0.886719 0 " fill-opacity="1" fill-rule="nonzero"/><path fill="#ffffff" d="M 0.886719 0 L 1199.113281 0 L 1199.113281 674 L 0.886719 674 Z M 0.886719 0 " fill-opacity="1" fill-rule="nonzero"/><path fill="#ffffff" d="M 0.886719 0 L 1199.113281 0 L 1199.113281 674 L 0.886719 674 Z M 0.886719 0 " fill-opacity="1" fill-rule="nonzero"/><path fill="#ffffff" d="M 0.886719 0 L 1199.113281 0 L 1199.113281 674 L 0.886719 674 Z M 0.886719 0 " fill-opacity="1" fill-rule="nonzero"/></g><path fill="#2319dc" d="M 471.214844 347.28125 C 511.703125 338.5625 506.070312 290.109375 504.980469 279.515625 C 502.988281 263.167969 483.796875 234.660156 457.761719 236.9375 C 425.082031 239.855469 420.183594 287.242188 420.183594 287.242188 C 415.738281 309.179688 430.78125 355.902344 471.203125 347.183594 M 546.398438 265.9375 C 568.75 265.9375 586.699219 240.164062 586.699219 208.328125 C 586.699219 176.496094 568.617188 150.761719 546.398438 150.761719 C 524.175781 150.761719 505.917969 176.484375 505.917969 208.328125 C 505.917969 240.171875 524.023438 265.9375 546.398438 265.9375 M 642.753906 269.730469 C 672.675781 273.652344 691.847656 241.71875 695.691406 217.417969 C 699.613281 193.253906 680.28125 165.148438 659.148438 160.308594 C 637.90625 155.425781 611.414062 189.429688 609.039062 211.609375 C 606.132812 238.855469 612.886719 265.773438 642.777344 269.621094 M 761.265625 310.269531 C 761.265625 298.695312 751.683594 263.8125 716.03125 263.8125 C 680.300781 263.8125 675.574219 296.722656 675.574219 319.992188 C 675.574219 342.191406 677.425781 373.15625 721.804688 372.304688 C 766.179688 371.453125 761.277344 322.03125 761.277344 310.378906 M 716.007812 412.082031 C 716.007812 412.082031 669.757812 376.28125 642.753906 337.582031 C 606.101562 280.519531 554.085938 303.753906 536.703125 332.734375 C 519.273438 361.789062 492.421875 380.140625 488.554688 385 C 484.667969 389.773438 432.699219 417.871094 444.222656 469.179688 C 455.746094 520.488281 496.3125 519.476562 496.3125 519.476562 C 496.3125 519.476562 526.179688 522.394531 560.820312 514.648438 C 571.503906 512.394531 582.304688 511.425781 593.21875 511.746094 C 604.132812 512.066406 614.855469 513.667969 625.390625 516.542969 C 625.390625 516.542969 706.355469 543.714844 728.492188 491.433594 C 750.625 439.15625 715.996094 412.09375 715.996094 412.09375 " fill-opacity="1" fill-rule="nonzero"/><path fill="#ffffff" d="M 553.597656 362.167969 L 553.597656 396.609375 L 525.546875 396.609375 C 525.546875 396.609375 497.519531 398.929688 487.707031 430.71875 C 484.285156 451.9375 490.722656 464.4375 491.84375 467.121094 C 492.96875 469.800781 502.042969 485.320312 524.785156 489.863281 L 577.398438 489.863281 L 577.398438 362.539062 Z M 553.160156 468.972656 L 531.964844 468.972656 C 531.964844 468.972656 517.191406 468.210938 512.683594 451.1875 C 510.363281 443.644531 513.03125 434.839844 514.207031 431.515625 C 515.277344 428.082031 520.242188 420.160156 530.460938 417.109375 L 553.160156 417.109375 L 553.160156 468.984375 Z M 590.195312 399.691406 L 590.195312 466.714844 C 590.195312 466.714844 591.285156 483.390625 614.8125 489.472656 L 675.378906 489.472656 L 675.378906 399.671875 L 649.234375 399.671875 L 649.234375 467.085938 L 624.183594 467.085938 C 624.183594 467.085938 616.207031 465.933594 614.707031 459.511719 L 614.707031 399.277344 L 590.085938 399.671875 Z M 590.195312 399.691406 " fill-opacity="1" fill-rule="nonzero"/><path fill="#e10601" d="M 964.035156 355.683594 L 964.035156 327.425781 L 777.988281 327.425781 L 777.75 356.085938 L 857.734375 356.085938 L 850.109375 373.242188 L 782.082031 373.242188 L 782.082031 515.074219 L 943.777344 515.074219 C 960.660156 515.074219 959.167969 497.996094 959.167969 497.996094 L 959.167969 373.253906 L 891.054688 373.253906 L 897.046875 355.816406 L 964.035156 355.804688 Z M 927.917969 484.773438 C 927.917969 484.773438 925.957031 489.484375 923.1875 489.484375 L 815.960938 489.484375 L 815.960938 456.40625 L 927.9375 456.40625 L 927.925781 484.773438 Z M 927.730469 429.195312 L 815.949219 429.195312 L 815.949219 398.175781 L 927.730469 398.175781 Z M 1176.664062 328.167969 L 1103.660156 328.167969 L 1103.660156 313.855469 L 1069.425781 313.855469 L 1069.425781 327.457031 L 985.679688 327.457031 L 985.679688 514.746094 L 1015.808594 514.746094 L 1015.808594 351.597656 L 1176.664062 351.597656 Z M 1156.96875 366.929688 L 1156.96875 356.085938 L 1127.539062 356.085938 L 1127.539062 366.929688 L 1066.972656 366.929688 L 1066.972656 356.46875 L 1039.089844 356.46875 L 1039.089844 366.929688 L 1020.242188 366.929688 L 1020.613281 388.152344 L 1039.078125 388.152344 L 1039.078125 427.996094 L 1140.925781 427.996094 C 1155.050781 427.996094 1156.9375 413.0625 1156.9375 413.0625 L 1156.9375 388.128906 L 1178.503906 388.128906 L 1178.503906 366.910156 L 1156.957031 366.910156 L 1156.957031 366.921875 Z M 1127.539062 402.632812 C 1127.539062 402.632812 1124.921875 407.460938 1121.546875 407.460938 L 1066.648438 407.460938 L 1066.648438 387.84375 L 1127.503906 387.84375 L 1127.503906 402.753906 Z M 1024.382812 457.039062 L 1071.265625 484.242188 C 1067.5625 488.328125 1051.660156 493.503906 1051.660156 493.503906 L 1020.394531 493.503906 L 1020.394531 514.429688 L 1062.835938 514.429688 C 1075.503906 511.835938 1098.933594 499.933594 1098.933594 499.933594 C 1108.738281 508.847656 1127.277344 512.554688 1127.277344 512.554688 L 1175.640625 512.554688 L 1175.640625 491.695312 L 1139.148438 491.695312 C 1129.324219 490.222656 1120.5 484.613281 1120.5 484.613281 L 1175.617188 452.941406 L 1175.617188 435.796875 L 1024.339844 435.796875 L 1024.328125 457.050781 Z M 1121.925781 456.691406 L 1095.109375 470.835938 L 1070.535156 456.691406 L 1121.929688 456.691406 Z M 364.007812 357.996094 L 404.617188 357.996094 L 404.617188 322.195312 L 364.007812 322.195312 Z M 364.007812 514.003906 L 404.617188 514.003906 L 404.617188 373.589844 L 364.007812 373.589844 Z M 297.921875 373.722656 L 211.28125 373.503906 L 211.28125 402.929688 L 287.257812 402.929688 C 287.257812 402.929688 305.339844 407.289062 305.339844 418.871094 L 305.339844 429.269531 L 236.582031 429.269531 C 236.582031 429.269531 209.546875 431.777344 200.855469 464.078125 C 199.363281 479.335938 201.355469 486.640625 202.378906 489.40625 C 203.40625 492.175781 211.28125 510.113281 234.839844 514.453125 L 344.3125 514.453125 L 344.3125 413.859375 C 344.3125 413.859375 339.085938 379.34375 297.910156 373.535156 M 305.316406 486.550781 L 249.980469 486.550781 C 242.542969 483.554688 240.179688 478.597656 239.546875 477.34375 C 238.914062 476.089844 237.3125 471.675781 239.328125 467.183594 C 243.6875 458.519531 251.222656 456.503906 251.222656 456.503906 L 305.316406 456.503906 Z M 192.03125 464.753906 C 193.121094 430.566406 162.566406 418.742188 162.566406 418.742188 C 188.515625 405.164062 185.222656 370.929688 185.222656 370.929688 C 182.414062 318.554688 118.453125 320.996094 118.453125 320.996094 L 19.5 320.996094 L 19.5 516.21875 L 131.121094 516.21875 C 196.660156 515.957031 191.945312 464.753906 191.945312 464.753906 M 128.765625 479.925781 L 128.765625 480.011719 L 61.90625 480.011719 L 61.90625 437.914062 L 128.441406 437.914062 L 130.695312 438.371094 C 130.695312 438.371094 143.351562 440.679688 147.9375 452.082031 C 152.523438 463.480469 150.597656 462.78125 144.855469 470.738281 C 144.855469 470.738281 140.640625 478.082031 128.765625 479.957031 M 142.929688 389.449219 C 142.929688 389.449219 138.441406 397.707031 126.511719 399.496094 L 61.894531 399.496094 L 61.894531 359.09375 L 126.238281 359.09375 C 126.238281 359.09375 140.226562 358.441406 144.84375 369.558594 C 149.464844 380.675781 147.621094 381.371094 142.929688 389.449219 " fill-opacity="1" fill-rule="nonzero"/></svg>