<svg xmlns="http://www.w3.org/2000/svg" xmlns:xlink="http://www.w3.org/1999/xlink" width="1600" zoomAndPan="magnify" viewBox="0 0 1200 675.000002" height="900" preserveAspectRatio="xMidYMid meet" version="1.0"><defs><clipPath id="id1"><path d="M 0.886719 0 L 1199.113281 0 L 1199.113281 674 L 0.886719 674 Z M 0.886719 0 " clip-rule="nonzero"/></clipPath><clipPath id="id2"><path d="M 742 256 L 1199.113281 256 L 1199.113281 412 L 742 412 Z M 742 256 " clip-rule="nonzero"/></clipPath></defs><g clip-path="url(#id1)"><path fill="#ffffff" d="M 0.886719 0 L 1199.113281 0 L 1199.113281 681.492188 L 0.886719 681.492188 Z M 0.886719 0 " fill-opacity="1" fill-rule="nonzero"/><path fill="#ffffff" d="M 0.886719 0 L 1199.113281 0 L 1199.113281 674 L 0.886719 674 Z M 0.886719 0 " fill-opacity="1" fill-rule="nonzero"/><path fill="#ffffff" d="M 0.886719 0 L 1199.113281 0 L 1199.113281 674 L 0.886719 674 Z M 0.886719 0 " fill-opacity="1" fill-rule="nonzero"/><path fill="#ffffff" d="M 0.886719 0 L 1199.113281 0 L 1199.113281 674 L 0.886719 674 Z M 0.886719 0 " fill-opacity="1" fill-rule="nonzero"/></g><path fill="#3b72b9" d="M 237.773438 258.449219 L 225.867188 257.925781 C 189.890625 257.925781 166.59375 277.078125 153.664062 299.332031 L 122.34375 354.71875 C 114.058594 367.917969 102.929688 373.601562 87.921875 373.601562 C 66.449219 373.601562 48.839844 357.296875 48.839844 337.378906 C 48.839844 317.460938 66.527344 301.132812 87.890625 301.132812 C 100.574219 301.132812 109.894531 304.492188 117.394531 312.777344 L 140.425781 274.742188 C 136.582031 271.980469 132.550781 269.53125 128.328125 267.398438 C 124.101562 265.265625 119.738281 263.476562 115.234375 262.027344 C 110.730469 260.578125 106.140625 259.484375 101.464844 258.753906 C 96.789062 258.019531 92.085938 257.65625 87.355469 257.660156 C 39.984375 257.660156 1.421875 293.101562 1.421875 337.101562 C 1.421875 374.101562 28.855469 405.164062 66.140625 413.839844 C 72.871094 415.398438 80.113281 416.429688 87.367188 416.429688 L 89.179688 416.429688 C 117.394531 415.90625 144.320312 406.867188 157.511719 383.066406 L 192.203125 320.707031 C 198.679688 310.621094 204.628906 306.214844 213.675781 303.355469 C 217.972656 301.992188 222.375 301.300781 226.882812 301.289062 C 248.355469 301.289062 265.964844 317.59375 265.964844 337.511719 C 265.964844 357.429688 248.363281 373.734375 226.882812 373.734375 C 209.28125 373.734375 198.398438 369.332031 187.941406 356.386719 L 165.691406 392.863281 C 181.222656 407.613281 203.226562 416.929688 227.292969 416.929688 C 274.664062 416.929688 313.226562 381.488281 313.226562 337.488281 C 313.484375 296.605469 280.351562 262.972656 237.640625 258.304688 Z M 237.773438 258.449219 " fill-opacity="1" fill-rule="nonzero"/><path fill="#3b72b9" d="M 402.664062 412.148438 C 391.539062 412.148438 381.695312 410.859375 372.382812 408.011719 C 363.058594 405.675781 355.558594 401.539062 349.085938 395.589844 C 342.609375 389.640625 337.4375 382.65625 333.808594 373.855469 C 330.183594 365.058594 328.636719 354.449219 328.636719 342.292969 L 328.636719 261.039062 L 379.890625 261.039062 L 379.890625 342.027344 C 379.890625 351.347656 382.226562 357.820312 386.367188 361.933594 C 390.503906 366.050781 396.203125 368.40625 403.1875 368.40625 C 410.175781 368.40625 415.359375 366.59375 420.011719 362.457031 C 424.148438 358.320312 426.484375 351.847656 426.484375 343.050781 L 426.484375 261.027344 L 477.742188 261.027344 L 477.742188 341.503906 C 477.742188 354.4375 475.925781 365.050781 472.566406 373.847656 C 468.941406 382.632812 463.777344 390.152344 457.292969 395.578125 C 450.816406 401.527344 442.796875 405.664062 433.996094 408 C 424.160156 411.113281 413.800781 412.136719 402.675781 412.136719 Z M 402.664062 412.148438 " fill-opacity="1" fill-rule="evenodd"/><g clip-path="url(#id2)"><path fill="#3b72b9" d="M 907.175781 337.101562 C 907.175781 287.054688 877.40625 256.113281 825.625 256.113281 C 776.707031 256.113281 742.796875 285.363281 742.796875 333.996094 C 742.796875 384.042969 779.554688 411.371094 828.996094 411.371094 C 862.910156 411.371094 896.550781 396.101562 904.839844 361.324219 L 854.109375 361.324219 C 848.15625 371.410156 840.132812 374.667969 828.996094 374.667969 C 806.746094 374.667969 795.867188 363.546875 795.867188 342.328125 L 907.175781 342.328125 Z M 797.167969 313.03125 C 800.792969 298.285156 813.476562 290.265625 828.742188 290.265625 C 842.714844 290.265625 856.175781 299.054688 858.515625 313.03125 Z M 1146.878906 261.539062 L 1146.878906 274.886719 C 1135.753906 262.460938 1117.617188 256 1100.816406 256 C 1056.539062 256 1026.277344 291.703125 1026.277344 333.375 C 1026.277344 375.046875 1057.09375 411.257812 1101.339844 411.257812 C 1118.941406 411.257812 1136.796875 404.785156 1146.121094 390.039062 L 1146.644531 390.039062 L 1146.644531 406.34375 L 1199.714844 406.34375 L 1199.714844 261.429688 Z M 1114.257812 367.117188 C 1092.785156 367.117188 1080.347656 353.148438 1080.347656 334.253906 C 1080.347656 316.660156 1093.285156 301.386719 1114.257812 301.386719 C 1135.730469 301.386719 1148.167969 316.136719 1148.167969 334.253906 C 1147.914062 352.882812 1135.742188 367.117188 1114.257812 367.117188 Z M 1114.257812 367.117188 " fill-opacity="1" fill-rule="nonzero"/></g><path fill="#3b72b9" d="M 709.398438 299.0625 C 701.109375 294.925781 690.238281 292.078125 680.917969 292.078125 C 674.964844 292.078125 664.605469 294.414062 664.605469 302.167969 C 664.605469 312.253906 680.917969 313.289062 688.414062 315.101562 C 712.890625 319.773438 731.636719 331.40625 731.636719 358.585938 C 731.636719 397.511719 696.179688 413.195312 661.234375 413.195312 C 640.261719 413.195312 619.292969 407.246094 601.179688 396.113281 L 620.335938 359.632812 C 630.953125 367.140625 648.820312 374.378906 662.28125 374.378906 C 668.757812 374.378906 678.589844 371.53125 678.589844 363.257812 C 678.589844 352.136719 662.28125 351.613281 645.460938 346.953125 C 629.148438 342.816406 612.328125 334.53125 612.328125 308.027344 C 612.328125 272.328125 645.460938 256.535156 677.96875 256.535156 C 694.789062 256.535156 711.878906 258.871094 726.886719 265.855469 Z M 617.5 259.214844 L 599.644531 259.214844 C 599.644531 259.214844 561.851562 267.5 551.246094 285.09375 L 550.726562 285.09375 L 550.726562 261.550781 L 497.65625 261.550781 L 497.65625 407.476562 L 550.726562 407.476562 L 550.726562 349 C 550.726562 323.898438 562.894531 305.015625 592.667969 305.015625 L 617.523438 259.214844 Z M 1040.460938 259.214844 L 1022.605469 259.214844 C 1022.605469 259.214844 984.8125 267.5 974.207031 285.09375 L 973.6875 285.09375 L 973.6875 261.550781 L 920.617188 261.550781 L 920.617188 407.476562 L 973.6875 407.476562 L 973.6875 349 C 973.6875 323.898438 985.855469 305.015625 1015.628906 305.015625 L 1040.484375 259.214844 Z M 1040.460938 259.214844 " fill-opacity="1" fill-rule="evenodd"/></svg>