<svg xmlns="http://www.w3.org/2000/svg" xmlns:xlink="http://www.w3.org/1999/xlink" width="1600" zoomAndPan="magnify" viewBox="0 0 1200 675.000002" height="900" preserveAspectRatio="xMidYMid meet" version="1.0"><defs><clipPath id="id1"><path d="M 0.886719 0 L 1199.113281 0 L 1199.113281 674 L 0.886719 674 Z M 0.886719 0 " clip-rule="nonzero"/></clipPath><clipPath id="id2"><path d="M 0.886719 89 L 1199.113281 89 L 1199.113281 569 L 0.886719 569 Z M 0.886719 89 " clip-rule="nonzero"/></clipPath></defs><g clip-path="url(#id1)"><path fill="#ffffff" d="M 0.886719 0 L 1199.113281 0 L 1199.113281 681.492188 L 0.886719 681.492188 Z M 0.886719 0 " fill-opacity="1" fill-rule="nonzero"/><path fill="#ffffff" d="M 0.886719 0 L 1199.113281 0 L 1199.113281 674 L 0.886719 674 Z M 0.886719 0 " fill-opacity="1" fill-rule="nonzero"/><path fill="#ffffff" d="M 0.886719 0 L 1199.113281 0 L 1199.113281 674 L 0.886719 674 Z M 0.886719 0 " fill-opacity="1" fill-rule="nonzero"/><path fill="#ffffff" d="M 0.886719 0 L 1199.113281 0 L 1199.113281 674 L 0.886719 674 Z M 0.886719 0 " fill-opacity="1" fill-rule="nonzero"/></g><g clip-path="url(#id2)"><path fill="#1f70c1" d="M 0.886719 89.117188 L 0.886719 121.933594 L 234.167969 121.933594 L 234.167969 89.117188 Z M 267.117188 89.117188 L 267.117188 121.933594 L 599.476562 121.933594 C 599.476562 121.933594 565.511719 89.117188 520.582031 89.117188 Z M 664.703125 89.117188 L 664.703125 121.933594 L 865.78125 121.933594 L 853.800781 89.117188 Z M 1009.941406 89.117188 L 997.960938 121.933594 L 1197.164062 121.933594 L 1197.164062 89.117188 Z M 0.886719 152.910156 L 0.886719 185.726562 L 234.167969 185.726562 L 234.167969 152.910156 Z M 267.117188 152.949219 L 267.117188 185.726562 L 638.042969 185.726562 C 638.042969 185.726562 633.699219 160.480469 626.171875 152.949219 Z M 664.703125 152.949219 L 664.703125 185.726562 L 887.875 185.726562 L 876.828125 152.949219 Z M 986.089844 152.949219 L 975.042969 185.726562 L 1197.277344 185.726562 L 1197.277344 152.949219 Z M 68.289062 216.707031 L 68.289062 249.5625 L 169.277344 249.5625 L 169.277344 216.707031 Z M 334.519531 216.707031 L 334.519531 249.5625 L 435.246094 249.5625 L 435.246094 216.707031 Z M 533.722656 216.707031 L 533.722656 249.5625 L 634.75 249.5625 C 634.75 249.5625 641.113281 232.214844 641.113281 216.707031 Z M 732.03125 216.707031 L 732.03125 249.5625 L 910.789062 249.5625 L 898.808594 216.707031 Z M 964.371094 216.707031 L 952.390625 249.5625 L 1131.710938 249.5625 L 1131.710938 216.707031 Z M 68.289062 280.539062 L 68.289062 313.355469 L 169.277344 313.355469 L 169.277344 280.539062 Z M 334.519531 280.539062 L 334.519531 313.355469 L 592.886719 313.355469 C 592.886719 313.355469 614.453125 296.5 621.34375 280.539062 Z M 732.105469 280.539062 L 732.105469 313.355469 L 833.09375 313.355469 L 833.09375 295.152344 L 839.457031 313.394531 L 1024.433594 313.394531 L 1031.324219 295.152344 L 1031.324219 313.394531 L 1131.710938 313.394531 L 1131.710938 280.578125 L 942.09375 280.578125 L 931.984375 308.375 L 921.875 280.578125 Z M 68.289062 344.375 L 68.289062 377.191406 L 169.277344 377.191406 L 169.277344 344.375 Z M 334.519531 344.375 L 334.519531 377.191406 L 620.96875 377.191406 C 614.078125 361.269531 592.511719 344.375 592.511719 344.375 Z M 732.105469 344.375 L 732.105469 377.191406 L 833.09375 377.191406 L 833.09375 344.375 Z M 851.476562 344.375 L 863.683594 377.191406 L 1002.417969 377.191406 L 1013.648438 344.375 Z M 1031.4375 344.375 L 1031.4375 377.191406 L 1131.710938 377.191406 L 1131.710938 344.375 Z M 68.289062 408.167969 L 68.289062 440.984375 L 169.277344 440.984375 L 169.277344 408.167969 Z M 334.519531 408.167969 L 334.519531 440.984375 L 435.246094 440.984375 L 435.246094 408.167969 Z M 533.722656 408.167969 L 533.722656 440.984375 L 641.1875 440.984375 C 641.1875 425.515625 634.824219 408.167969 634.824219 408.167969 Z M 732.03125 408.167969 L 732.03125 440.984375 L 833.015625 440.984375 L 833.015625 408.167969 Z M 874.320312 408.167969 L 886.152344 440.984375 L 979.164062 440.984375 L 991.144531 408.167969 Z M 1031.359375 408.167969 L 1031.359375 440.984375 L 1131.710938 440.984375 L 1131.710938 408.167969 Z M 2.761719 471.964844 L 2.761719 504.816406 L 236.039062 504.816406 L 236.039062 471.964844 Z M 267.230469 471.964844 L 267.230469 504.816406 L 626.324219 504.816406 C 633.886719 497.324219 638.195312 471.964844 638.195312 471.964844 Z M 666.613281 471.964844 L 666.613281 504.816406 L 832.867188 504.816406 L 832.867188 471.964844 Z M 897.085938 471.964844 L 909.253906 504.816406 L 956.585938 504.816406 L 968.003906 471.964844 Z M 1031.136719 471.964844 L 1031.136719 504.816406 L 1199.113281 504.816406 L 1199.113281 471.964844 Z M 2.761719 535.796875 L 2.761719 568.613281 L 236.039062 568.613281 L 236.039062 535.796875 Z M 267.230469 535.796875 L 267.230469 568.578125 L 520.730469 568.578125 C 565.664062 568.578125 599.664062 535.796875 599.664062 535.796875 Z M 666.613281 535.796875 L 666.613281 568.613281 L 832.867188 568.613281 L 832.867188 535.796875 Z M 920.113281 535.796875 L 931.832031 568.5 L 933.855469 568.539062 L 945.761719 535.761719 Z M 1031.097656 535.796875 L 1031.097656 568.613281 L 1199.113281 568.613281 L 1199.113281 535.796875 Z M 1031.097656 535.796875 " fill-opacity="1" fill-rule="nonzero"/></g></svg>