<svg xmlns="http://www.w3.org/2000/svg" xmlns:xlink="http://www.w3.org/1999/xlink" width="1600" zoomAndPan="magnify" viewBox="0 0 1200 675.000002" height="900" preserveAspectRatio="xMidYMid meet" version="1.0"><defs><clipPath id="id1"><path d="M 0.886719 0 L 1199.113281 0 L 1199.113281 674 L 0.886719 674 Z M 0.886719 0 " clip-rule="nonzero"/></clipPath><clipPath id="id2"><path d="M 18.863281 230 L 856 230 L 856 449 L 18.863281 449 Z M 18.863281 230 " clip-rule="nonzero"/></clipPath><clipPath id="id3"><path d="M 900 189.074219 L 1199.113281 189.074219 L 1199.113281 489 L 900 489 Z M 900 189.074219 " clip-rule="nonzero"/></clipPath></defs><g clip-path="url(#id1)"><path fill="#ffffff" d="M 0.886719 0 L 1199.113281 0 L 1199.113281 681.492188 L 0.886719 681.492188 Z M 0.886719 0 " fill-opacity="1" fill-rule="nonzero"/><path fill="#ffffff" d="M 0.886719 0 L 1199.113281 0 L 1199.113281 674 L 0.886719 674 Z M 0.886719 0 " fill-opacity="1" fill-rule="nonzero"/><path fill="#ffffff" d="M 0.886719 0 L 1199.113281 0 L 1199.113281 674 L 0.886719 674 Z M 0.886719 0 " fill-opacity="1" fill-rule="nonzero"/><path fill="#ffffff" d="M 0.886719 0 L 1199.113281 0 L 1199.113281 674 L 0.886719 674 Z M 0.886719 0 " fill-opacity="1" fill-rule="nonzero"/></g><g clip-path="url(#id2)"><path fill="#000000" d="M 150.226562 401.957031 L 150.226562 444.53125 L 18.621094 444.53125 L 18.621094 233.921875 L 64.777344 233.921875 L 64.777344 401.957031 Z M 170.609375 301.699219 L 214.96875 301.699219 L 214.96875 444.519531 L 170.609375 444.519531 Z M 192.792969 230.753906 C 193.636719 230.753906 194.476562 230.796875 195.316406 230.878906 C 196.15625 230.960938 196.988281 231.085938 197.8125 231.25 C 198.640625 231.414062 199.457031 231.617188 200.261719 231.863281 C 201.066406 232.105469 201.859375 232.390625 202.640625 232.710938 C 203.417969 233.035156 204.179688 233.394531 204.921875 233.792969 C 205.664062 234.1875 206.386719 234.621094 207.085938 235.089844 C 207.789062 235.554688 208.464844 236.058594 209.113281 236.589844 C 209.765625 237.125 210.390625 237.691406 210.984375 238.285156 C 211.582031 238.882812 212.148438 239.503906 212.679688 240.15625 C 213.214844 240.804688 213.71875 241.480469 214.1875 242.183594 C 214.652344 242.882812 215.085938 243.601562 215.484375 244.347656 C 215.882812 245.089844 216.242188 245.847656 216.5625 246.625 C 216.886719 247.40625 217.171875 248.195312 217.414062 249.003906 C 217.660156 249.808594 217.867188 250.625 218.03125 251.449219 C 218.195312 252.277344 218.320312 253.109375 218.402344 253.945312 C 218.484375 254.785156 218.527344 255.625 218.527344 256.464844 C 218.527344 270.679688 207 282.167969 192.789062 282.167969 C 178.582031 282.167969 167.070312 270.675781 167.070312 256.464844 C 167.070312 255.625 167.113281 254.785156 167.195312 253.945312 C 167.28125 253.109375 167.402344 252.277344 167.566406 251.453125 C 167.734375 250.625 167.9375 249.8125 168.183594 249.003906 C 168.425781 248.199219 168.710938 247.40625 169.03125 246.628906 C 169.355469 245.851562 169.714844 245.09375 170.113281 244.351562 C 170.507812 243.609375 170.941406 242.886719 171.410156 242.1875 C 171.878906 241.488281 172.378906 240.8125 172.914062 240.160156 C 173.449219 239.507812 174.011719 238.886719 174.609375 238.289062 C 175.203125 237.695312 175.828125 237.128906 176.476562 236.597656 C 177.128906 236.0625 177.804688 235.5625 178.503906 235.09375 C 179.203125 234.625 179.925781 234.191406 180.667969 233.796875 C 181.410156 233.398438 182.171875 233.039062 182.949219 232.714844 C 183.726562 232.394531 184.519531 232.109375 185.324219 231.867188 C 186.132812 231.621094 186.945312 231.414062 187.773438 231.25 C 188.597656 231.085938 189.429688 230.960938 190.269531 230.878906 C 191.105469 230.796875 191.949219 230.753906 192.789062 230.753906 M 494.988281 301.683594 L 549.300781 301.683594 L 491.070312 367.714844 L 548.078125 444.519531 L 492.367188 444.519531 L 445.296875 373.964844 L 444.726562 373.964844 L 444.726562 444.519531 L 400.378906 444.519531 L 400.378906 233.910156 L 444.726562 233.910156 L 444.726562 359.78125 Z M 239.507812 301.769531 L 282.089844 301.769531 L 282.089844 321.332031 L 282.675781 321.332031 C 288.585938 310.097656 303.078125 298.28125 324.660156 298.28125 C 369.617188 298.28125 377.894531 327.839844 377.894531 366.257812 L 377.894531 444.515625 L 333.539062 444.515625 L 333.539062 375.082031 C 333.539062 358.519531 333.234375 337.25 310.464844 337.25 C 287.402344 337.25 283.863281 355.28125 283.863281 373.898438 L 283.863281 444.476562 L 239.503906 444.476562 L 239.503906 301.769531 Z M 642.734375 356.519531 C 643.027344 341.738281 631.488281 329.324219 615.507812 329.324219 C 596 329.324219 585.347656 342.628906 584.179688 356.519531 Z M 680.28125 419.761719 C 666.09375 437.796875 642.738281 448.148438 619.609375 448.148438 C 575.257812 448.148438 539.769531 418.574219 539.769531 372.757812 C 539.769531 326.941406 575.257812 297.433594 619.609375 297.433594 C 661.042969 297.433594 687.035156 326.992188 687.035156 372.757812 L 687.035156 386.648438 L 584.125 386.648438 C 587.648438 403.5 600.382812 414.429688 617.542969 414.429688 C 632.039062 414.429688 641.789062 407.09375 649.1875 396.984375 Z M 779.464844 336.261719 C 757.300781 336.261719 744 351.050781 744 372.613281 C 744 394.210938 757.308594 408.972656 779.464844 408.972656 C 801.660156 408.972656 814.976562 394.210938 814.976562 372.613281 C 814.96875 351.050781 801.664062 336.261719 779.464844 336.261719 M 855.796875 444.453125 L 814.980469 444.453125 L 814.980469 425.523438 L 814.402344 425.523438 C 807.578125 435.867188 790.441406 447.992188 770.324219 447.992188 C 727.726562 447.992188 699.640625 417.261719 699.640625 373.796875 C 699.640625 333.882812 724.476562 297.230469 765.285156 297.230469 C 783.636719 297.230469 800.785156 302.253906 810.792969 316.144531 L 811.367188 316.144531 L 811.367188 233.910156 L 855.75 233.910156 Z M 855.796875 444.453125 " fill-opacity="1" fill-rule="nonzero"/></g><g clip-path="url(#id3)"><path fill="#0177b5" d="M 1177.207031 189.691406 L 922.242188 189.691406 C 910.007812 189.691406 900.160156 199.347656 900.160156 211.242188 L 900.160156 467.179688 C 900.160156 479.089844 910.058594 488.75 922.242188 488.75 L 1177.207031 488.75 C 1189.410156 488.75 1199.351562 479.085938 1199.351562 467.179688 L 1199.351562 211.242188 C 1199.351562 199.347656 1189.417969 189.691406 1177.1875 189.691406 Z M 1177.207031 189.691406 " fill-opacity="1" fill-rule="nonzero"/></g><path fill="#ffffff" d="M 944.539062 301.8125 L 988.917969 301.8125 L 988.917969 444.535156 L 944.539062 444.535156 Z M 966.738281 230.867188 C 967.582031 230.867188 968.421875 230.910156 969.257812 230.992188 C 970.097656 231.074219 970.929688 231.199219 971.753906 231.363281 C 972.582031 231.53125 973.398438 231.734375 974.203125 231.980469 C 975.007812 232.222656 975.800781 232.507812 976.578125 232.832031 C 977.355469 233.152344 978.117188 233.511719 978.859375 233.910156 C 979.601562 234.308594 980.320312 234.738281 981.023438 235.207031 C 981.722656 235.675781 982.398438 236.175781 983.046875 236.710938 C 983.699219 237.246094 984.320312 237.808594 984.917969 238.40625 C 985.511719 239 986.078125 239.625 986.613281 240.273438 C 987.144531 240.925781 987.648438 241.601562 988.113281 242.300781 C 988.582031 243 989.015625 243.722656 989.414062 244.464844 C 989.808594 245.207031 990.167969 245.964844 990.492188 246.742188 C 990.8125 247.519531 991.097656 248.3125 991.34375 249.117188 C 991.585938 249.925781 991.792969 250.738281 991.957031 251.566406 C 992.121094 252.390625 992.246094 253.222656 992.328125 254.058594 C 992.410156 254.898438 992.453125 255.738281 992.453125 256.578125 C 992.453125 257.421875 992.410156 258.261719 992.328125 259.097656 C 992.246094 259.9375 992.121094 260.769531 991.957031 261.59375 C 991.792969 262.421875 991.589844 263.234375 991.34375 264.042969 C 991.101562 264.847656 990.816406 265.640625 990.492188 266.417969 C 990.171875 267.195312 989.8125 267.957031 989.414062 268.699219 C 989.019531 269.441406 988.585938 270.164062 988.117188 270.863281 C 987.652344 271.5625 987.148438 272.238281 986.617188 272.890625 C 986.082031 273.539062 985.515625 274.164062 984.921875 274.757812 C 984.324219 275.355469 983.703125 275.917969 983.050781 276.453125 C 982.402344 276.988281 981.726562 277.488281 981.023438 277.957031 C 980.324219 278.425781 979.601562 278.859375 978.859375 279.257812 C 978.117188 279.652344 977.359375 280.015625 976.578125 280.335938 C 975.800781 280.660156 975.011719 280.941406 974.203125 281.1875 C 973.398438 281.433594 972.582031 281.636719 971.757812 281.804688 C 970.929688 281.96875 970.097656 282.09375 969.261719 282.175781 C 968.421875 282.257812 967.582031 282.300781 966.738281 282.300781 C 965.894531 282.300781 965.054688 282.261719 964.214844 282.175781 C 963.378906 282.09375 962.542969 281.972656 961.71875 281.804688 C 960.890625 281.640625 960.074219 281.4375 959.265625 281.191406 C 958.460938 280.949219 957.667969 280.664062 956.890625 280.34375 C 956.109375 280.019531 955.347656 279.660156 954.605469 279.261719 C 953.863281 278.867188 953.140625 278.433594 952.441406 277.964844 C 951.738281 277.496094 951.0625 276.996094 950.410156 276.460938 C 949.757812 275.925781 949.136719 275.363281 948.539062 274.765625 C 947.945312 274.171875 947.378906 273.546875 946.84375 272.894531 C 946.308594 272.246094 945.808594 271.570312 945.339844 270.867188 C 944.871094 270.167969 944.4375 269.445312 944.039062 268.703125 C 943.644531 267.960938 943.28125 267.199219 942.960938 266.421875 C 942.636719 265.644531 942.355469 264.851562 942.109375 264.046875 C 941.863281 263.238281 941.660156 262.421875 941.496094 261.597656 C 941.332031 260.769531 941.207031 259.9375 941.125 259.101562 C 941.042969 258.261719 941 257.421875 941 256.578125 C 941.003906 255.738281 941.042969 254.898438 941.125 254.058594 C 941.210938 253.21875 941.332031 252.386719 941.5 251.5625 C 941.664062 250.734375 941.867188 249.921875 942.113281 249.113281 C 942.359375 248.308594 942.640625 247.515625 942.964844 246.738281 C 943.289062 245.960938 943.648438 245.199219 944.046875 244.457031 C 944.441406 243.714844 944.875 242.992188 945.34375 242.292969 C 945.8125 241.59375 946.3125 240.917969 946.847656 240.265625 C 947.382812 239.613281 947.949219 238.992188 948.546875 238.398438 C 949.140625 237.800781 949.765625 237.234375 950.417969 236.703125 C 951.066406 236.167969 951.742188 235.667969 952.445312 235.199219 C 953.144531 234.730469 953.867188 234.300781 954.609375 233.902344 C 955.355469 233.503906 956.113281 233.144531 956.894531 232.824219 C 957.671875 232.5 958.464844 232.21875 959.269531 231.972656 C 960.078125 231.730469 960.894531 231.523438 961.71875 231.359375 C 962.546875 231.195312 963.378906 231.074219 964.21875 230.988281 C 965.054688 230.90625 965.894531 230.867188 966.738281 230.867188 M 1016.746094 301.8125 L 1059.304688 301.8125 L 1059.304688 321.265625 L 1059.894531 321.265625 C 1065.765625 310.042969 1080.296875 298.210938 1101.875 298.210938 C 1146.816406 298.210938 1155.113281 327.773438 1155.113281 366.199219 L 1155.113281 444.480469 L 1110.734375 444.480469 L 1110.734375 375.027344 C 1110.734375 358.476562 1110.429688 337.183594 1087.671875 337.183594 C 1064.578125 337.183594 1061.039062 355.214844 1061.039062 373.828125 L 1061.039062 444.433594 L 1016.707031 444.433594 L 1016.707031 301.710938 Z M 1016.746094 301.8125 " fill-opacity="1" fill-rule="nonzero"/></svg>